<mxfile host="app.diagrams.net" modified="2023-12-10T13:06:40.412Z" agent="Mozilla/5.0 (Windows NT 10.0; Win64; x64) AppleWebKit/537.36 (KHTML, like Gecko) Chrome/118.0.5993.731 YaBrowser/23.11.1.731 Yowser/2.5 Safari/537.36" etag="nhcI7i6VnFheZmQm47-C" version="22.1.7" type="github">
  <diagram id="C5RBs43oDa-KdzZeNtuy" name="Page-1">
    <mxGraphModel dx="1386" dy="801" grid="1" gridSize="10" guides="1" tooltips="1" connect="1" arrows="1" fold="1" page="1" pageScale="1" pageWidth="827" pageHeight="1169" math="0" shadow="0">
      <root>
        <mxCell id="WIyWlLk6GJQsqaUBKTNV-0" />
        <mxCell id="WIyWlLk6GJQsqaUBKTNV-1" parent="WIyWlLk6GJQsqaUBKTNV-0" />
        <mxCell id="iB2DHXzR6naHUAVdiexc-3" style="edgeStyle=orthogonalEdgeStyle;rounded=0;orthogonalLoop=1;jettySize=auto;html=1;exitX=0.5;exitY=1;exitDx=0;exitDy=0;entryX=0.5;entryY=0;entryDx=0;entryDy=0;" edge="1" parent="WIyWlLk6GJQsqaUBKTNV-1" source="iB2DHXzR6naHUAVdiexc-0" target="iB2DHXzR6naHUAVdiexc-1">
          <mxGeometry relative="1" as="geometry" />
        </mxCell>
        <mxCell id="iB2DHXzR6naHUAVdiexc-0" value="Начало" style="ellipse;whiteSpace=wrap;html=1;" vertex="1" parent="WIyWlLk6GJQsqaUBKTNV-1">
          <mxGeometry x="330" y="70" width="120" height="60" as="geometry" />
        </mxCell>
        <mxCell id="iB2DHXzR6naHUAVdiexc-5" style="edgeStyle=orthogonalEdgeStyle;rounded=0;orthogonalLoop=1;jettySize=auto;html=1;exitX=0.5;exitY=1;exitDx=0;exitDy=0;entryX=0.5;entryY=0;entryDx=0;entryDy=0;" edge="1" parent="WIyWlLk6GJQsqaUBKTNV-1" source="iB2DHXzR6naHUAVdiexc-1" target="iB2DHXzR6naHUAVdiexc-4">
          <mxGeometry relative="1" as="geometry" />
        </mxCell>
        <mxCell id="iB2DHXzR6naHUAVdiexc-1" value="Вывести &quot;Введите логин&quot;" style="shape=parallelogram;perimeter=parallelogramPerimeter;whiteSpace=wrap;html=1;fixedSize=1;" vertex="1" parent="WIyWlLk6GJQsqaUBKTNV-1">
          <mxGeometry x="330" y="200" width="120" height="60" as="geometry" />
        </mxCell>
        <mxCell id="iB2DHXzR6naHUAVdiexc-11" style="edgeStyle=orthogonalEdgeStyle;rounded=0;orthogonalLoop=1;jettySize=auto;html=1;exitX=0.5;exitY=1;exitDx=0;exitDy=0;entryX=0.5;entryY=0;entryDx=0;entryDy=0;" edge="1" parent="WIyWlLk6GJQsqaUBKTNV-1" source="iB2DHXzR6naHUAVdiexc-4" target="iB2DHXzR6naHUAVdiexc-15">
          <mxGeometry relative="1" as="geometry">
            <mxPoint x="390" y="410" as="targetPoint" />
          </mxGeometry>
        </mxCell>
        <mxCell id="iB2DHXzR6naHUAVdiexc-4" value="Считать User.Login" style="shape=parallelogram;perimeter=parallelogramPerimeter;whiteSpace=wrap;html=1;fixedSize=1;" vertex="1" parent="WIyWlLk6GJQsqaUBKTNV-1">
          <mxGeometry x="315" y="310" width="150" height="60" as="geometry" />
        </mxCell>
        <mxCell id="iB2DHXzR6naHUAVdiexc-18" style="edgeStyle=orthogonalEdgeStyle;rounded=0;orthogonalLoop=1;jettySize=auto;html=1;exitX=0.5;exitY=1;exitDx=0;exitDy=0;entryX=0.5;entryY=0;entryDx=0;entryDy=0;" edge="1" parent="WIyWlLk6GJQsqaUBKTNV-1" source="iB2DHXzR6naHUAVdiexc-6" target="iB2DHXzR6naHUAVdiexc-17">
          <mxGeometry relative="1" as="geometry" />
        </mxCell>
        <mxCell id="iB2DHXzR6naHUAVdiexc-6" value="return &quot;&quot;" style="rounded=0;whiteSpace=wrap;html=1;" vertex="1" parent="WIyWlLk6GJQsqaUBKTNV-1">
          <mxGeometry x="90" y="630" width="120" height="60" as="geometry" />
        </mxCell>
        <mxCell id="iB2DHXzR6naHUAVdiexc-9" style="edgeStyle=orthogonalEdgeStyle;rounded=0;orthogonalLoop=1;jettySize=auto;html=1;exitX=0;exitY=0.5;exitDx=0;exitDy=0;entryX=0.5;entryY=0;entryDx=0;entryDy=0;" edge="1" parent="WIyWlLk6GJQsqaUBKTNV-1" source="iB2DHXzR6naHUAVdiexc-8" target="iB2DHXzR6naHUAVdiexc-6">
          <mxGeometry relative="1" as="geometry" />
        </mxCell>
        <mxCell id="iB2DHXzR6naHUAVdiexc-10" value="Да" style="edgeLabel;html=1;align=center;verticalAlign=middle;resizable=0;points=[];" vertex="1" connectable="0" parent="iB2DHXzR6naHUAVdiexc-9">
          <mxGeometry x="0.0057" y="-3" relative="1" as="geometry">
            <mxPoint as="offset" />
          </mxGeometry>
        </mxCell>
        <mxCell id="iB2DHXzR6naHUAVdiexc-13" style="edgeStyle=orthogonalEdgeStyle;rounded=0;orthogonalLoop=1;jettySize=auto;html=1;exitX=1;exitY=0.5;exitDx=0;exitDy=0;" edge="1" parent="WIyWlLk6GJQsqaUBKTNV-1" source="iB2DHXzR6naHUAVdiexc-8" target="iB2DHXzR6naHUAVdiexc-12">
          <mxGeometry relative="1" as="geometry" />
        </mxCell>
        <mxCell id="iB2DHXzR6naHUAVdiexc-14" value="Нет" style="edgeLabel;html=1;align=center;verticalAlign=middle;resizable=0;points=[];" vertex="1" connectable="0" parent="iB2DHXzR6naHUAVdiexc-13">
          <mxGeometry x="-0.52" y="-1" relative="1" as="geometry">
            <mxPoint as="offset" />
          </mxGeometry>
        </mxCell>
        <mxCell id="iB2DHXzR6naHUAVdiexc-8" value="User.IsPremium == true?" style="rhombus;whiteSpace=wrap;html=1;" vertex="1" parent="WIyWlLk6GJQsqaUBKTNV-1">
          <mxGeometry x="305" y="520" width="170" height="80" as="geometry" />
        </mxCell>
        <mxCell id="iB2DHXzR6naHUAVdiexc-19" style="edgeStyle=orthogonalEdgeStyle;rounded=0;orthogonalLoop=1;jettySize=auto;html=1;exitX=0.5;exitY=1;exitDx=0;exitDy=0;" edge="1" parent="WIyWlLk6GJQsqaUBKTNV-1" source="iB2DHXzR6naHUAVdiexc-12">
          <mxGeometry relative="1" as="geometry">
            <mxPoint x="390" y="750" as="targetPoint" />
          </mxGeometry>
        </mxCell>
        <mxCell id="iB2DHXzR6naHUAVdiexc-12" value="user.ShowAds" style="rounded=0;whiteSpace=wrap;html=1;" vertex="1" parent="WIyWlLk6GJQsqaUBKTNV-1">
          <mxGeometry x="516" y="630" width="120" height="60" as="geometry" />
        </mxCell>
        <mxCell id="iB2DHXzR6naHUAVdiexc-16" style="edgeStyle=orthogonalEdgeStyle;rounded=0;orthogonalLoop=1;jettySize=auto;html=1;exitX=0.5;exitY=1;exitDx=0;exitDy=0;entryX=0.5;entryY=0;entryDx=0;entryDy=0;" edge="1" parent="WIyWlLk6GJQsqaUBKTNV-1" source="iB2DHXzR6naHUAVdiexc-15" target="iB2DHXzR6naHUAVdiexc-8">
          <mxGeometry relative="1" as="geometry" />
        </mxCell>
        <mxCell id="iB2DHXzR6naHUAVdiexc-15" value="Greetings = &quot;Привет&quot; + User.Name" style="rounded=0;whiteSpace=wrap;html=1;" vertex="1" parent="WIyWlLk6GJQsqaUBKTNV-1">
          <mxGeometry x="330" y="420" width="120" height="60" as="geometry" />
        </mxCell>
        <mxCell id="iB2DHXzR6naHUAVdiexc-17" value="Конец" style="ellipse;whiteSpace=wrap;html=1;" vertex="1" parent="WIyWlLk6GJQsqaUBKTNV-1">
          <mxGeometry x="330" y="750" width="120" height="80" as="geometry" />
        </mxCell>
      </root>
    </mxGraphModel>
  </diagram>
</mxfile>
